<svg width="36" height="44" viewBox="0 0 36 44" fill="none" xmlns="http://www.w3.org/2000/svg">
<path d="M14.0909 23.9967L14.0909 22.9967L13.0909 22.9967L2.5 22.9967C2.29379 22.9967 1 22.5427 1 20.5L1 3.5C1 2.6439 1.20589 2.02418 1.51526 1.63563C1.79901 1.27926 2.24962 1.01426 3.00868 1L32 1C32.8514 1 33.5957 1.2148 34.1098 1.64322C34.5918 2.04491 35 2.74048 35 4L35 40C35 41.3028 34.6073 42.0099 34.1851 42.3999C33.7445 42.8068 33.1357 42.9939 32.5 42.9939L16.5 42.9939L16.4897 42.9939L16.4794 42.9941C15.5925 43.0124 15.0442 42.9879 14.6828 42.7787C14.4655 42.6529 14.0909 42.3212 14.0909 40.9943L14.0909 23.9967Z" fill="#CC454D" stroke="#1E3454" stroke-width="2"/>
<path fill-rule="evenodd" clip-rule="evenodd" d="M29.5 7.5V10.5C29.5 10.7761 29.2761 11 29 11H18V13.3868L13 10.5L18 7.61325V10H28.5V7.5H29.5Z" fill="#1E3454"/>
</svg>
